<svg xmlns="http://www.w3.org/2000/svg" viewBox="0 0 31 32" width="31" height="32"><defs><clipPath id="alignment-14789906274370950197">
<path d="M15.999999999999886,-0.00000000000009769962616701378 C15.999999999999886,-0.00000000000009769962616701378 29.8564064605508,7.999999999999845 29.8564064605508,7.999999999999845 C29.8564064605508,7.999999999999845 29.856406460550804,23.999999999999726 29.856406460550804,23.999999999999726 C29.856406460550804,23.999999999999726 15.999999999999886,31.999999999999673 15.999999999999886,31.999999999999673 C15.999999999999886,31.999999999999673 2.1435935394489682,23.999999999999734 2.1435935394489682,23.999999999999734 C2.1435935394489682,23.999999999999734 2.1435935394489594,7.999999999999854 2.1435935394489594,7.999999999999854 C2.1435935394489594,7.999999999999854 15.999999999999886,-0.00000000000009769962616701378 15.999999999999886,-0.00000000000009769962616701378 Z" fill="#000000"/></clipPath></defs><g transform="matrix(1,0,0,1,0,0)">
<rect fill="#fefefe" fill-opacity="0" x="0" y="0" width="32" height="32"/>
<g>
	<g>
		<path d="M15.999999999999886,-0.00000000000009769962616701378 C15.999999999999886,-0.00000000000009769962616701378 29.8564064605508,7.999999999999845 29.8564064605508,7.999999999999845 C29.8564064605508,7.999999999999845 29.856406460550804,23.999999999999726 29.856406460550804,23.999999999999726 C29.856406460550804,23.999999999999726 15.999999999999886,31.999999999999673 15.999999999999886,31.999999999999673 C15.999999999999886,31.999999999999673 2.1435935394489682,23.999999999999734 2.1435935394489682,23.999999999999734 C2.1435935394489682,23.999999999999734 2.1435935394489594,7.999999999999854 2.1435935394489594,7.999999999999854 C2.1435935394489594,7.999999999999854 15.999999999999886,-0.00000000000009769962616701378 15.999999999999886,-0.00000000000009769962616701378 Z" transform="matrix(1,0,0,1,0,0)" fill="#4bc6e9"/>
		<path d="M15.999999999999886,-0.00000000000009769962616701378 C15.999999999999886,-0.00000000000009769962616701378 29.8564064605508,7.999999999999845 29.8564064605508,7.999999999999845 C29.8564064605508,7.999999999999845 29.856406460550804,23.999999999999726 29.856406460550804,23.999999999999726 C29.856406460550804,23.999999999999726 15.999999999999886,31.999999999999673 15.999999999999886,31.999999999999673 C15.999999999999886,31.999999999999673 2.1435935394489682,23.999999999999734 2.1435935394489682,23.999999999999734 C2.1435935394489682,23.999999999999734 2.1435935394489594,7.999999999999854 2.1435935394489594,7.999999999999854 C2.1435935394489594,7.999999999999854 15.999999999999886,-0.00000000000009769962616701378 15.999999999999886,-0.00000000000009769962616701378 Z" transform="matrix(1,0,0,1,0,0)" clip-path="url(#alignment-14789906274370950197)" fill="none" stroke="#00495d" stroke-width="4"/>
	</g>
</g></g></svg>